<?xml version="1.0" encoding="UTF-8" standalone="no"?>
<!DOCTYPE svg PUBLIC "-//W3C//DTD SVG 1.1//EN"
 "http://www.w3.org/Graphics/SVG/1.1/DTD/svg11.dtd">
<!-- Generated by graphviz version 2.26.3 (20100126.1600)
 -->
<!-- Title: G Pages: 1 -->
<svg width="378pt" height="260pt"
 viewBox="0.00 0.00 378.00 260.00" xmlns="http://www.w3.org/2000/svg" xmlns:xlink="http://www.w3.org/1999/xlink">
<g id="graph1" class="graph" transform="scale(1 1) rotate(0) translate(4 256)">
<title>G</title>
<polygon fill="white" stroke="white" points="-4,5 -4,-256 375,-256 375,5 -4,5"/>
<g id="graph2" class="cluster"><title>cluster_Global</title>
<polyline fill="none" stroke="gray" points="266,-30 350,-30 "/>
<path fill="none" stroke="gray" d="M350,-30C356,-30 362,-36 362,-42"/>
<polyline fill="none" stroke="gray" points="362,-42 362,-222 "/>
<path fill="none" stroke="gray" d="M362,-222C362,-228 356,-234 350,-234"/>
<polyline fill="none" stroke="gray" points="350,-234 266,-234 "/>
<path fill="none" stroke="gray" d="M266,-234C260,-234 254,-228 254,-222"/>
<polyline fill="none" stroke="gray" points="254,-222 254,-42 "/>
<path fill="none" stroke="gray" d="M254,-42C254,-36 260,-30 266,-30"/>
<text text-anchor="middle" x="308" y="-220.1" font-family="Times Roman,serif" font-size="11.00" fill="gray">Global</text>
</g>
<g id="graph3" class="cluster"><title>cluster_\chdemko</title>
<polyline fill="none" stroke="gray" points="274,-38 342,-38 "/>
<path fill="none" stroke="gray" d="M342,-38C348,-38 354,-44 354,-50"/>
<polyline fill="none" stroke="gray" points="354,-50 354,-192 "/>
<path fill="none" stroke="gray" d="M354,-192C354,-198 348,-204 342,-204"/>
<polyline fill="none" stroke="gray" points="342,-204 274,-204 "/>
<path fill="none" stroke="gray" d="M274,-204C268,-204 262,-198 262,-192"/>
<polyline fill="none" stroke="gray" points="262,-192 262,-50 "/>
<path fill="none" stroke="gray" d="M262,-50C262,-44 268,-38 274,-38"/>
<text text-anchor="middle" x="308" y="-190.1" font-family="Times Roman,serif" font-size="11.00" fill="gray">chdemko</text>
</g>
<g id="graph4" class="cluster"><title>cluster_\chdemko\BitArray</title>
<polyline fill="none" stroke="gray" points="282,-46 334,-46 "/>
<path fill="none" stroke="gray" d="M334,-46C340,-46 346,-52 346,-58"/>
<polyline fill="none" stroke="gray" points="346,-58 346,-162 "/>
<path fill="none" stroke="gray" d="M346,-162C346,-168 340,-174 334,-174"/>
<polyline fill="none" stroke="gray" points="334,-174 282,-174 "/>
<path fill="none" stroke="gray" d="M282,-174C276,-174 270,-168 270,-162"/>
<polyline fill="none" stroke="gray" points="270,-162 270,-58 "/>
<path fill="none" stroke="gray" d="M270,-58C270,-52 276,-46 282,-46"/>
<text text-anchor="middle" x="308" y="-160.1" font-family="Times Roman,serif" font-size="11.00" fill="gray">BitArray</text>
</g>
<!-- \\chdemko\\BitArray\\BitArray -->
<g id="node4" class="node"><title>\\chdemko\\BitArray\\BitArray</title>
<polygon fill="none" stroke="black" points="338,-144 278,-144 278,-108 338,-108 338,-144"/>
<text text-anchor="middle" x="308" y="-123.1" font-family="Times Roman,serif" font-size="11.00">BitArray</text>
</g>
<!-- \\ArrayAccess -->
<g id="node7" class="node"><title>\\ArrayAccess</title>
<ellipse fill="none" stroke="black" cx="103" cy="-234" rx="73.0388" ry="18.3848"/>
<text text-anchor="middle" x="103" y="-230.4" font-family="Times Roman,serif" font-size="14.00" fill="gray">\ArrayAccess</text>
</g>
<!-- \\chdemko\\BitArray\\BitArray&#45;&gt;\\ArrayAccess -->
<g id="edge5" class="edge"><title>\\chdemko\\BitArray\\BitArray&#45;&gt;\\ArrayAccess</title>
<path fill="none" stroke="black" stroke-dasharray="1,5" d="M290.095,-144.115C270.907,-162.53 238.764,-190.614 206,-207 195.279,-212.362 183.381,-216.74 171.59,-220.288"/>
<polygon fill="none" stroke="black" points="170.407,-216.985 161.738,-223.077 172.314,-223.721 170.407,-216.985"/>
</g>
<!-- \\Countable -->
<g id="node9" class="node"><title>\\Countable</title>
<ellipse fill="none" stroke="black" cx="103" cy="-180" rx="65.0538" ry="18.3848"/>
<text text-anchor="middle" x="103" y="-176.4" font-family="Times Roman,serif" font-size="14.00" fill="gray">\Countable</text>
</g>
<!-- \\chdemko\\BitArray\\BitArray&#45;&gt;\\Countable -->
<g id="edge7" class="edge"><title>\\chdemko\\BitArray\\BitArray&#45;&gt;\\Countable</title>
<path fill="none" stroke="black" stroke-dasharray="1,5" d="M277.655,-134.053C257.372,-139.43 230.091,-146.654 206,-153 191.258,-156.883 175.325,-161.067 160.498,-164.954"/>
<polygon fill="none" stroke="black" points="159.224,-161.669 150.438,-167.59 160.999,-168.441 159.224,-161.669"/>
</g>
<!-- \\IteratorAggregate -->
<g id="node11" class="node"><title>\\IteratorAggregate</title>
<ellipse fill="none" stroke="black" cx="103" cy="-126" rx="103.238" ry="18.3848"/>
<text text-anchor="middle" x="103" y="-122.4" font-family="Times Roman,serif" font-size="14.00" fill="gray">\IteratorAggregate</text>
</g>
<!-- \\chdemko\\BitArray\\BitArray&#45;&gt;\\IteratorAggregate -->
<g id="edge9" class="edge"><title>\\chdemko\\BitArray\\BitArray&#45;&gt;\\IteratorAggregate</title>
<path fill="none" stroke="black" stroke-dasharray="1,5" d="M277.752,-126C260.967,-126 238.924,-126 216.172,-126"/>
<polygon fill="none" stroke="black" points="216.04,-122.5 206.04,-126 216.04,-129.5 216.04,-122.5"/>
</g>
<!-- \\JsonSerializable -->
<g id="node13" class="node"><title>\\JsonSerializable</title>
<ellipse fill="none" stroke="black" cx="103" cy="-72" rx="91.2168" ry="18.3848"/>
<text text-anchor="middle" x="103" y="-68.4" font-family="Times Roman,serif" font-size="14.00" fill="gray">\JsonSerializable</text>
</g>
<!-- \\chdemko\\BitArray\\BitArray&#45;&gt;\\JsonSerializable -->
<g id="edge11" class="edge"><title>\\chdemko\\BitArray\\BitArray&#45;&gt;\\JsonSerializable</title>
<path fill="none" stroke="black" stroke-dasharray="1,5" d="M277.655,-117.947C257.372,-112.57 230.091,-105.346 206,-99 193.728,-95.7674 180.631,-92.3269 168.034,-89.0225"/>
<polygon fill="none" stroke="black" points="168.625,-85.5592 158.064,-86.4082 166.85,-92.3303 168.625,-85.5592"/>
</g>
<!-- \\chdemko\\BitArray\\Iterator -->
<g id="node5" class="node"><title>\\chdemko\\BitArray\\Iterator</title>
<polygon fill="none" stroke="black" points="336,-90 280,-90 280,-54 336,-54 336,-90"/>
<text text-anchor="middle" x="308" y="-69.1" font-family="Times Roman,serif" font-size="11.00">Iterator</text>
</g>
<!-- \\Iterator -->
<g id="node15" class="node"><title>\\Iterator</title>
<ellipse fill="none" stroke="black" cx="103" cy="-18" rx="51.8276" ry="18.3848"/>
<text text-anchor="middle" x="103" y="-14.4" font-family="Times Roman,serif" font-size="14.00" fill="gray">\Iterator</text>
</g>
<!-- \\chdemko\\BitArray\\Iterator&#45;&gt;\\Iterator -->
<g id="edge13" class="edge"><title>\\chdemko\\BitArray\\Iterator&#45;&gt;\\Iterator</title>
<path fill="none" stroke="black" stroke-dasharray="1,5" d="M279.427,-64.4168C258.98,-58.9952 230.8,-51.5327 206,-45 189.42,-40.6324 171.333,-35.8855 155.009,-31.6074"/>
<polygon fill="none" stroke="black" points="155.662,-28.1604 145.101,-29.0118 153.888,-34.9319 155.662,-28.1604"/>
</g>
</g>
</svg>
