<?xml version="1.0" encoding="UTF-8" standalone="no"?>
<!DOCTYPE svg PUBLIC "-//W3C//DTD SVG 1.1//EN"
 "http://www.w3.org/Graphics/SVG/1.1/DTD/svg11.dtd">
<!-- Generated by graphviz version 2.36.0 (20140111.2315)
 -->
<!-- Title: G Pages: 1 -->
<svg width="336pt" height="298pt"
 viewBox="0.00 0.00 336.00 298.00" xmlns="http://www.w3.org/2000/svg" xmlns:xlink="http://www.w3.org/1999/xlink">
<g id="graph0" class="graph" transform="scale(1 1) rotate(0) translate(4 294)">
<title>G</title>
<polygon fill="white" stroke="none" points="-4,4 -4,-294 332,-294 332,4 -4,4"/>
<g id="clust1" class="cluster"><title>cluster_Global</title>
<path fill="none" stroke="gray" d="M212,-84C212,-84 308,-84 308,-84 314,-84 320,-90 320,-96 320,-96 320,-270 320,-270 320,-276 314,-282 308,-282 308,-282 212,-282 212,-282 206,-282 200,-276 200,-270 200,-270 200,-96 200,-96 200,-90 206,-84 212,-84"/>
<text text-anchor="middle" x="260" y="-269.2" font-family="Times,serif" font-size="11.00" fill="gray">Global</text>
</g>
<g id="clust2" class="cluster"><title>cluster_\chdemko</title>
<path fill="none" stroke="gray" d="M220,-92C220,-92 300,-92 300,-92 306,-92 312,-98 312,-104 312,-104 312,-242 312,-242 312,-248 306,-254 300,-254 300,-254 220,-254 220,-254 214,-254 208,-248 208,-242 208,-242 208,-104 208,-104 208,-98 214,-92 220,-92"/>
<text text-anchor="middle" x="260" y="-241.2" font-family="Times,serif" font-size="11.00" fill="gray">chdemko</text>
</g>
<g id="clust3" class="cluster"><title>cluster_\chdemko\BitArray</title>
<path fill="none" stroke="gray" d="M228,-100C228,-100 292,-100 292,-100 298,-100 304,-106 304,-112 304,-112 304,-214 304,-214 304,-220 298,-226 292,-226 292,-226 228,-226 228,-226 222,-226 216,-220 216,-214 216,-214 216,-112 216,-112 216,-106 222,-100 228,-100"/>
<text text-anchor="middle" x="260" y="-213.2" font-family="Times,serif" font-size="11.00" fill="gray">BitArray</text>
</g>
<!-- \\chdemko\\BitArray\\Iterator -->
<g id="node1" class="node"><title>\\chdemko\\BitArray\\Iterator</title>
<polygon fill="none" stroke="black" points="295.5,-198 224.5,-198 224.5,-162 295.5,-162 295.5,-198"/>
<text text-anchor="middle" x="260" y="-177.2" font-family="Courier,monospace" font-size="11.00">Iterator</text>
</g>
<!-- \\Iterator -->
<g id="node3" class="node"><title>\\Iterator</title>
<ellipse fill="none" stroke="black" cx="76" cy="-234" rx="38.9931" ry="18"/>
<text text-anchor="middle" x="76" y="-230.3" font-family="Times,serif" font-size="14.00" fill="gray">\Iterator</text>
</g>
<!-- \\chdemko\\BitArray\\Iterator&#45;&gt;\\Iterator -->
<g id="edge1" class="edge"><title>\\chdemko\\BitArray\\Iterator&#45;&gt;\\Iterator</title>
<path fill="none" stroke="black" stroke-dasharray="1,5" d="M224.339,-190.284C194.465,-199.148 151.237,-211.974 119.325,-221.442"/>
<polygon fill="none" stroke="black" points="117.984,-218.189 109.393,-224.389 119.975,-224.9 117.984,-218.189"/>
</g>
<!-- \\chdemko\\BitArray\\BitArray -->
<g id="node2" class="node"><title>\\chdemko\\BitArray\\BitArray</title>
<polygon fill="none" stroke="black" points="295.5,-144 224.5,-144 224.5,-108 295.5,-108 295.5,-144"/>
<text text-anchor="middle" x="260" y="-123.2" font-family="Courier,monospace" font-size="11.00">BitArray</text>
</g>
<!-- \\ArrayAccess -->
<g id="node4" class="node"><title>\\ArrayAccess</title>
<ellipse fill="none" stroke="black" cx="76" cy="-180" rx="58.4896" ry="18"/>
<text text-anchor="middle" x="76" y="-176.3" font-family="Times,serif" font-size="14.00" fill="gray">\ArrayAccess</text>
</g>
<!-- \\chdemko\\BitArray\\BitArray&#45;&gt;\\ArrayAccess -->
<g id="edge2" class="edge"><title>\\chdemko\\BitArray\\BitArray&#45;&gt;\\ArrayAccess</title>
<path fill="none" stroke="black" stroke-dasharray="1,5" d="M224.339,-136.284C197.257,-144.319 159.2,-155.611 128.549,-164.705"/>
<polygon fill="none" stroke="black" points="127.472,-161.374 118.88,-167.574 129.463,-168.085 127.472,-161.374"/>
</g>
<!-- \\Countable -->
<g id="node5" class="node"><title>\\Countable</title>
<ellipse fill="none" stroke="black" cx="76" cy="-126" rx="49.2915" ry="18"/>
<text text-anchor="middle" x="76" y="-122.3" font-family="Times,serif" font-size="14.00" fill="gray">\Countable</text>
</g>
<!-- \\chdemko\\BitArray\\BitArray&#45;&gt;\\Countable -->
<g id="edge3" class="edge"><title>\\chdemko\\BitArray\\BitArray&#45;&gt;\\Countable</title>
<path fill="none" stroke="black" stroke-dasharray="1,5" d="M224.339,-126C199.337,-126 164.98,-126 135.733,-126"/>
<polygon fill="none" stroke="black" points="135.624,-122.5 125.624,-126 135.624,-129.5 135.624,-122.5"/>
</g>
<!-- \\IteratorAggregate -->
<g id="node6" class="node"><title>\\IteratorAggregate</title>
<ellipse fill="none" stroke="black" cx="76" cy="-72" rx="75.2868" ry="18"/>
<text text-anchor="middle" x="76" y="-68.3" font-family="Times,serif" font-size="14.00" fill="gray">\IteratorAggregate</text>
</g>
<!-- \\chdemko\\BitArray\\BitArray&#45;&gt;\\IteratorAggregate -->
<g id="edge4" class="edge"><title>\\chdemko\\BitArray\\BitArray&#45;&gt;\\IteratorAggregate</title>
<path fill="none" stroke="black" stroke-dasharray="1,5" d="M224.339,-115.716C198.764,-108.128 163.402,-97.6358 133.732,-88.8325"/>
<polygon fill="none" stroke="black" points="134.493,-85.4075 123.91,-85.9184 132.502,-92.1184 134.493,-85.4075"/>
</g>
<!-- \\JsonSerializable -->
<g id="node7" class="node"><title>\\JsonSerializable</title>
<ellipse fill="none" stroke="black" cx="76" cy="-18" rx="70.3881" ry="18"/>
<text text-anchor="middle" x="76" y="-14.3" font-family="Times,serif" font-size="14.00" fill="gray">\JsonSerializable</text>
</g>
<!-- \\chdemko\\BitArray\\BitArray&#45;&gt;\\JsonSerializable -->
<g id="edge5" class="edge"><title>\\chdemko\\BitArray\\BitArray&#45;&gt;\\JsonSerializable</title>
<path fill="none" stroke="black" stroke-dasharray="1,5" d="M238.97,-107.866C218.376,-89.9652 184.772,-62.7661 152,-45 145.56,-41.5086 138.576,-38.3066 131.548,-35.4236"/>
<polygon fill="none" stroke="black" points="132.574,-32.0669 121.986,-31.6927 130.03,-38.5881 132.574,-32.0669"/>
</g>
</g>
</svg>
