<?xml version="1.0" encoding="UTF-8" standalone="no"?>
<!DOCTYPE svg PUBLIC "-//W3C//DTD SVG 1.1//EN"
 "http://www.w3.org/Graphics/SVG/1.1/DTD/svg11.dtd">
<!-- Generated by graphviz version 2.26.3 (20100126.1600)
 -->
<!-- Title: G Pages: 1 -->
<svg width="390pt" height="304pt"
 viewBox="0.00 0.00 390.00 304.00" xmlns="http://www.w3.org/2000/svg" xmlns:xlink="http://www.w3.org/1999/xlink">
<g id="graph1" class="graph" transform="scale(1 1) rotate(0) translate(4 300)">
<title>G</title>
<polygon fill="white" stroke="white" points="-4,5 -4,-300 387,-300 387,5 -4,5"/>
<g id="graph2" class="cluster"><title>cluster_Global</title>
<polyline fill="none" stroke="gray" points="266,-84 362,-84 "/>
<path fill="none" stroke="gray" d="M362,-84C368,-84 374,-90 374,-96"/>
<polyline fill="none" stroke="gray" points="374,-96 374,-276 "/>
<path fill="none" stroke="gray" d="M374,-276C374,-282 368,-288 362,-288"/>
<polyline fill="none" stroke="gray" points="362,-288 266,-288 "/>
<path fill="none" stroke="gray" d="M266,-288C260,-288 254,-282 254,-276"/>
<polyline fill="none" stroke="gray" points="254,-276 254,-96 "/>
<path fill="none" stroke="gray" d="M254,-96C254,-90 260,-84 266,-84"/>
<text text-anchor="middle" x="314" y="-274.1" font-family="Times Roman,serif" font-size="11.00" fill="gray">Global</text>
</g>
<g id="graph3" class="cluster"><title>cluster_\chdemko</title>
<polyline fill="none" stroke="gray" points="274,-92 354,-92 "/>
<path fill="none" stroke="gray" d="M354,-92C360,-92 366,-98 366,-104"/>
<polyline fill="none" stroke="gray" points="366,-104 366,-246 "/>
<path fill="none" stroke="gray" d="M366,-246C366,-252 360,-258 354,-258"/>
<polyline fill="none" stroke="gray" points="354,-258 274,-258 "/>
<path fill="none" stroke="gray" d="M274,-258C268,-258 262,-252 262,-246"/>
<polyline fill="none" stroke="gray" points="262,-246 262,-104 "/>
<path fill="none" stroke="gray" d="M262,-104C262,-98 268,-92 274,-92"/>
<text text-anchor="middle" x="314" y="-244.1" font-family="Times Roman,serif" font-size="11.00" fill="gray">chdemko</text>
</g>
<g id="graph4" class="cluster"><title>cluster_\chdemko\BitArray</title>
<polyline fill="none" stroke="gray" points="282,-100 346,-100 "/>
<path fill="none" stroke="gray" d="M346,-100C352,-100 358,-106 358,-112"/>
<polyline fill="none" stroke="gray" points="358,-112 358,-216 "/>
<path fill="none" stroke="gray" d="M358,-216C358,-222 352,-228 346,-228"/>
<polyline fill="none" stroke="gray" points="346,-228 282,-228 "/>
<path fill="none" stroke="gray" d="M282,-228C276,-228 270,-222 270,-216"/>
<polyline fill="none" stroke="gray" points="270,-216 270,-112 "/>
<path fill="none" stroke="gray" d="M270,-112C270,-106 276,-100 282,-100"/>
<text text-anchor="middle" x="314" y="-214.1" font-family="Times Roman,serif" font-size="11.00" fill="gray">BitArray</text>
</g>
<!-- \\chdemko\\BitArray\\Iterator -->
<g id="node4" class="node"><title>\\chdemko\\BitArray\\Iterator</title>
<polygon fill="none" stroke="black" points="349,-198 279,-198 279,-162 349,-162 349,-198"/>
<text text-anchor="middle" x="314" y="-177.1" font-family="Courier,monospace" font-size="11.00">Iterator</text>
</g>
<!-- \\Iterator -->
<g id="node7" class="node"><title>\\Iterator</title>
<ellipse fill="none" stroke="black" cx="103" cy="-234" rx="51.8276" ry="18.3848"/>
<text text-anchor="middle" x="103" y="-230.4" font-family="Times Roman,serif" font-size="14.00" fill="gray">\Iterator</text>
</g>
<!-- \\chdemko\\BitArray\\Iterator&#45;&gt;\\Iterator -->
<g id="edge5" class="edge"><title>\\chdemko\\BitArray\\Iterator&#45;&gt;\\Iterator</title>
<path fill="none" stroke="black" stroke-dasharray="1,5" d="M278.207,-189.16C244.424,-197.806 193.381,-210.869 155.089,-220.669"/>
<polygon fill="none" stroke="black" points="153.97,-217.343 145.15,-223.213 155.706,-224.124 153.97,-217.343"/>
</g>
<!-- \\chdemko\\BitArray\\BitArray -->
<g id="node5" class="node"><title>\\chdemko\\BitArray\\BitArray</title>
<polygon fill="none" stroke="black" points="349,-144 279,-144 279,-108 349,-108 349,-144"/>
<text text-anchor="middle" x="314" y="-123.1" font-family="Courier,monospace" font-size="11.00">BitArray</text>
</g>
<!-- \\ArrayAccess -->
<g id="node9" class="node"><title>\\ArrayAccess</title>
<ellipse fill="none" stroke="black" cx="103" cy="-180" rx="73.0388" ry="18.3848"/>
<text text-anchor="middle" x="103" y="-176.4" font-family="Times Roman,serif" font-size="14.00" fill="gray">\ArrayAccess</text>
</g>
<!-- \\chdemko\\BitArray\\BitArray&#45;&gt;\\ArrayAccess -->
<g id="edge7" class="edge"><title>\\chdemko\\BitArray\\BitArray&#45;&gt;\\ArrayAccess</title>
<path fill="none" stroke="black" stroke-dasharray="1,5" d="M278.207,-135.16C246.907,-143.171 200.789,-154.973 163.725,-164.459"/>
<polygon fill="none" stroke="black" points="162.843,-161.072 154.023,-166.942 164.578,-167.853 162.843,-161.072"/>
</g>
<!-- \\Countable -->
<g id="node11" class="node"><title>\\Countable</title>
<ellipse fill="none" stroke="black" cx="103" cy="-126" rx="65.0538" ry="18.3848"/>
<text text-anchor="middle" x="103" y="-122.4" font-family="Times Roman,serif" font-size="14.00" fill="gray">\Countable</text>
</g>
<!-- \\chdemko\\BitArray\\BitArray&#45;&gt;\\Countable -->
<g id="edge9" class="edge"><title>\\chdemko\\BitArray\\BitArray&#45;&gt;\\Countable</title>
<path fill="none" stroke="black" stroke-dasharray="1,5" d="M278.207,-126C250.929,-126 212.398,-126 178.412,-126"/>
<polygon fill="none" stroke="black" points="178.029,-122.5 168.029,-126 178.029,-129.5 178.029,-122.5"/>
</g>
<!-- \\IteratorAggregate -->
<g id="node13" class="node"><title>\\IteratorAggregate</title>
<ellipse fill="none" stroke="black" cx="103" cy="-72" rx="103.238" ry="18.3848"/>
<text text-anchor="middle" x="103" y="-68.4" font-family="Times Roman,serif" font-size="14.00" fill="gray">\IteratorAggregate</text>
</g>
<!-- \\chdemko\\BitArray\\BitArray&#45;&gt;\\IteratorAggregate -->
<g id="edge11" class="edge"><title>\\chdemko\\BitArray\\BitArray&#45;&gt;\\IteratorAggregate</title>
<path fill="none" stroke="black" stroke-dasharray="1,5" d="M278.207,-116.84C248.974,-109.358 206.818,-98.5695 171.182,-89.4495"/>
<polygon fill="none" stroke="black" points="171.876,-86.0142 161.32,-86.9255 170.14,-92.7957 171.876,-86.0142"/>
</g>
<!-- \\JsonSerializable -->
<g id="node15" class="node"><title>\\JsonSerializable</title>
<ellipse fill="none" stroke="black" cx="103" cy="-18" rx="91.2168" ry="18.3848"/>
<text text-anchor="middle" x="103" y="-14.4" font-family="Times Roman,serif" font-size="14.00" fill="gray">\JsonSerializable</text>
</g>
<!-- \\chdemko\\BitArray\\BitArray&#45;&gt;\\JsonSerializable -->
<g id="edge13" class="edge"><title>\\chdemko\\BitArray\\BitArray&#45;&gt;\\JsonSerializable</title>
<path fill="none" stroke="black" stroke-dasharray="1,5" d="M294.839,-107.936C274.357,-89.5632 240.19,-61.5129 206,-45 196.854,-40.5829 186.89,-36.8181 176.88,-33.6291"/>
<polygon fill="none" stroke="black" points="177.878,-30.2745 167.294,-30.7455 175.862,-36.9778 177.878,-30.2745"/>
</g>
</g>
</svg>
